<?xml version="1.0" encoding="UTF-8"?>
<svg width="700pt" height="700pt" version="1.1" viewBox="0 0 700 700" xmlns="http://www.w3.org/2000/svg" xmlns:xlink="http://www.w3.org/1999/xlink">
 
 <g>
  <path d="m422.87 172.7c-2.8281-1.2109-6.1367 0.078125-7.3633 2.918-1.2266 2.8398 0.078125 6.1328 2.918 7.3633 62.914 27.227 103.57 89.105 103.57 157.65 0 79.852-54.789 147.14-128.74 166.26-4.3867-40.191-9.2461-95.066-9.6055-142.89h16.758c9.2617 0 16.801-7.5391 16.801-16.801 0-6.043-3.2305-11.301-8.0312-14.262l7.0898-10.633c0.13281-0.20313 0.20703-0.42969 0.3125-0.64844 0.078126-0.15625 0.16406-0.29688 0.22266-0.46094 0.23438-0.60937 0.37109-1.2422 0.37891-1.8867 0-0.039063 0.023437-0.066406 0.023437-0.10547v-11.203c-0.003906-0.65625-0.14453-1.3203-0.375-1.9414-0.0625-0.16406-0.12891-0.3125-0.20312-0.46484-0.074219-0.15625-0.11328-0.32422-0.20313-0.46875l-2.1602-3.6055 0.011719 0.050781-13.867-23.121v-15.25c0-3.0898-2.5039-5.6016-5.6016-5.6016h-22.398v-16.801c0-3.0898-2.5039-5.6016-5.6016-5.6016l0.003906-66.102c4.6016-3.6133 5.6016-8.6562 5.6016-12.293 0-4.793-1.7266-12.047-11.199-15.215l-0.003906-40.785c0-3.0898-2.5039-5.6016-5.6016-5.6016v-50.398c0-3.0898-2.5078-5.6016-5.6016-5.6016-3.0898 0-5.6016 2.5078-5.6016 5.6016v50.398c-3.0898 0-5.6016 2.5078-5.6016 5.6016v40.785c-9.4766 3.168-11.199 10.422-11.199 15.215 0 3.6328 0.99609 8.6797 5.6016 12.293l0.003907 66.105c-3.0898 0-5.6016 2.5078-5.6016 5.6016v16.801h-22.398c-3.0898 0-5.6016 2.5078-5.6016 5.6016v15.25l-16 26.668c-0.089844 0.15234-0.12891 0.32031-0.20312 0.46875-0.074219 0.15625-0.14062 0.30078-0.20312 0.46484-0.23047 0.62109-0.37891 1.2617-0.38672 1.9141 0 0.015625-0.003907 0.019531-0.003907 0.03125v11.199c0 0.039062 0.023438 0.066406 0.023438 0.10156 0.011719 0.64844 0.14453 1.2812 0.37891 1.8984 0.0625 0.15625 0.14453 0.29688 0.21875 0.44922 0.10547 0.21875 0.17969 0.44922 0.32031 0.65625l7.0898 10.633c-4.8008 2.9609-8.0312 8.2188-8.0312 14.262 0 9.2617 7.5391 16.801 16.801 16.801h16.766c-0.34766 47.852-5 102.71-9.1914 142.84-73.875-19.176-128.59-86.418-128.59-166.21 0-68.477 40.602-130.34 103.43-157.59 2.8398-1.2305 4.1367-4.5312 2.9102-7.3633-1.2266-2.8398-4.5352-4.1367-7.3633-2.9102-66.926 29.035-110.17 94.926-110.17 167.87 0 100.85 82.047 182.89 182.89 182.89 100.84 0 182.89-82.047 182.89-182.89-0.003906-73.016-43.301-138.93-110.32-167.94zm-72.867-21.5c11.199 0 11.199 3.5039 11.199 5.6016 0 2.0938 0 5.6016-11.199 5.6016s-11.199-3.5039-11.199-5.6016c0-2.0938 0-5.6016 11.199-5.6016zm5.6016 22.043v84.359h-11.199v-16.801l-0.003906-67.559c1.707 0.21875 3.5391 0.35937 5.6016 0.35937s3.8906-0.14062 5.6016-0.35937zm-44.801 95.559h78.398v5.6016h-78.398zm-2.4297 16.801h83.254l10.078 16.801-103.41-0.003906zm92.77 39.199-3.7344 5.6016h-11.637l1.8633-5.6016zm-25.309 0-1.8633 5.6016-18.367-0.003906v-5.6016zm-31.434 0v5.6016h-18.363l-1.8633-5.6016zm-30.172 5.5977h-11.633l-3.7344-5.6016h13.496zm-14.625 22.402c-3.0859 0-5.6016-2.5078-5.6016-5.6016 0-3.0898 2.5156-5.6016 5.6016-5.6016h100.8c3.0898 0 5.6016 2.5078 5.6016 5.6016 0 3.0898-2.5078 5.6016-5.6016 5.6016zm82.625 156.5c-8.668 1.6367-17.562 2.6133-26.629 2.8906l0.003906-148.2h16.824c0.35938 48.789 5.3633 104.72 9.8008 145.3zm-54.645-145.3h16.816v148.18c-8.9258-0.30078-17.684-1.2812-26.219-2.9062 4.25-40.516 9.0508-96.445 9.4023-145.27z"/>
  <use x="70" y="644" xlink:href="#u"/>
  <use x="90.550781" y="644" xlink:href="#d"/>
  <use x="104.359375" y="644" xlink:href="#a"/>
  <use x="123.347656" y="644" xlink:href="#g"/>
  <use x="142.242188" y="644" xlink:href="#c"/>
  <use x="155.628906" y="644" xlink:href="#a"/>
  <use x="174.617188" y="644" xlink:href="#l"/>
  <use x="204.40625" y="644" xlink:href="#f"/>
  <use x="224.453125" y="644" xlink:href="#k"/>
  <use x="252.453125" y="644" xlink:href="#j"/>
  <use x="271.578125" y="644" xlink:href="#g"/>
  <use x="290.472656" y="644" xlink:href="#f"/>
  <use x="310.515625" y="644" xlink:href="#i"/>
  <use x="320.113281" y="644" xlink:href="#a"/>
  <use x="339.101562" y="644" xlink:href="#e"/>
  <use x="368.785156" y="644" xlink:href="#t"/>
  <use x="379.203125" y="644" xlink:href="#b"/>
  <use x="398.4375" y="644" xlink:href="#h"/>
  <use x="418.375" y="644" xlink:href="#i"/>
  <use x="427.96875" y="644" xlink:href="#e"/>
  <use x="70" y="672" xlink:href="#s"/>
  <use x="82.183594" y="672" xlink:href="#d"/>
  <use x="95.992188" y="672" xlink:href="#b"/>
  <use x="115.226562" y="672" xlink:href="#r"/>
  <use x="154.152344" y="672" xlink:href="#c"/>
  <use x="167.535156" y="672" xlink:href="#q"/>
  <use x="187.46875" y="672" xlink:href="#a"/>
  <use x="216.207031" y="672" xlink:href="#p"/>
  <use x="239.640625" y="672" xlink:href="#b"/>
  <use x="258.878906" y="672" xlink:href="#h"/>
  <use x="278.8125" y="672" xlink:href="#e"/>
  <use x="308.492188" y="672" xlink:href="#o"/>
  <use x="329.015625" y="672" xlink:href="#d"/>
  <use x="342.824219" y="672" xlink:href="#b"/>
  <use x="362.058594" y="672" xlink:href="#n"/>
  <use x="371.65625" y="672" xlink:href="#a"/>
  <use x="390.648438" y="672" xlink:href="#m"/>
  <use x="407.246094" y="672" xlink:href="#c"/>
 </g>
</svg>
